<?xml version="1.0" standalone="no"?>
<!DOCTYPE svg PUBLIC "-//W3C//DTD SVG 20010904//EN"
 "http://www.w3.org/TR/2001/REC-SVG-20010904/DTD/svg10.dtd">
<svg version="1.0" xmlns="http://www.w3.org/2000/svg"
 width="640.000000pt" height="480.000000pt" viewBox="0 0 640.000000 480.000000"
 preserveAspectRatio="xMidYMid meet">
<metadata>
Created by potrace 1.15, written by Peter Selinger 2001-2017
</metadata>
<g transform="translate(0.000000,480.000000) scale(0.100000,-0.100000)"
fill="#000000" stroke="none">
<path d="M0 2400 l0 -2400 3200 0 3200 0 0 690 0 690 -37 1 c-21 0 -46 2 -56
4 -29 5 -220 -15 -242 -25 -11 -6 -38 -14 -60 -19 -33 -7 -35 -9 -12 -10 26
-1 39 -20 15 -22 -7 -1 -2 -4 12 -8 18 -6 3 -10 -57 -15 -44 -4 -92 -4 -105 1
-17 6 -3 9 57 14 51 4 17 5 -95 5 -96 0 -256 2 -355 7 -366 15 -355 15 -365
-2 -7 -11 -9 -12 -10 -3 0 7 -5 10 -11 6 -20 -12 6 -22 71 -28 36 -2 81 -10
100 -15 19 -6 64 -12 100 -12 36 -1 79 -5 95 -9 24 -6 17 -8 -35 -10 -36 -1
-94 -5 -130 -9 l-65 -7 95 -8 c52 -4 158 -9 235 -11 227 -5 221 -5 205 -14
-17 -10 -119 -23 -170 -23 -145 2 -307 -20 -193 -26 54 -3 153 -25 153 -34 0
-4 0 -11 1 -15 0 -4 -19 -15 -43 -24 l-43 -18 75 -2 c85 -2 77 -6 -25 -13 -38
-3 -90 -8 -115 -12 -25 -4 -64 -7 -88 -8 -23 0 -42 -3 -42 -6 0 -3 -33 -6 -73
-7 -61 -3 -75 -6 -90 -25 l-19 -23 6 30 c4 23 3 25 -3 10 -5 -11 -12 -28 -15
-37 -3 -10 -11 -18 -18 -17 -10 0 -10 2 -1 6 7 2 13 14 13 25 0 14 -5 18 -16
14 -33 -13 -69 -18 -55 -8 16 11 5 36 -11 26 -7 -4 -8 -2 -4 4 4 6 14 8 22 5
13 -5 14 0 9 31 -5 25 -4 36 4 36 7 0 9 5 6 10 -3 6 -2 10 2 10 5 0 14 -9 21
-20 14 -24 47 -28 38 -5 -3 8 -1 15 4 15 6 0 10 5 10 11 0 5 -4 8 -9 4 -5 -3
-12 -1 -16 5 -3 5 -1 10 4 10 18 0 12 46 -7 64 -17 14 -18 21 -7 61 13 52 8
118 -8 108 -6 -4 -8 0 -4 10 3 9 1 18 -6 20 -9 3 -9 9 1 26 16 27 15 34 -6 57
-12 13 -16 27 -12 44 6 24 7 24 13 4 7 -19 14 -20 90 -19 95 2 107 6 99 37 -5
19 -2 21 27 15 20 -4 30 -3 26 3 -4 6 7 10 24 10 23 0 31 -5 31 -17 0 -13 3
-14 12 -5 17 17 35 15 40 -6 4 -15 -1 -17 -36 -15 -23 1 -32 0 -22 -4 15 -4
16 -7 5 -14 -9 -6 10 -9 54 -8 50 2 70 6 74 16 3 8 9 10 12 5 3 -5 16 -12 29
-16 17 -6 22 -3 23 11 0 10 3 13 6 6 6 -17 38 -16 52 1 7 8 28 17 49 20 20 4
46 10 57 13 18 5 18 4 6 -11 -8 -9 -12 -18 -10 -19 17 -12 64 -27 84 -27 26 0
34 -15 13 -23 -7 -2 6 -5 30 -5 27 0 40 3 36 10 -4 6 1 6 14 -1 12 -6 45 -12
74 -14 46 -2 53 -5 53 -22 0 -17 9 -21 65 -26 120 -12 256 -10 291 5 19 7 40
11 47 9 10 -4 12 83 12 421 -1 328 -3 426 -13 426 -8 0 -7 3 2 9 11 7 9 10
-10 14 -23 4 -23 4 -1 6 l22 1 0 1250 0 1250 -3200 0 -3200 0 0 -2400z m3015
430 c17 -1 24 -4 17 -7 -10 -4 -9 -9 5 -19 17 -14 17 -15 -2 -13 -11 1 -38 1
-60 0 -32 -1 -37 -4 -22 -12 27 -16 20 -28 -25 -49 -47 -21 -170 -29 -134 -9
29 17 1 28 -58 23 l-51 -5 29 17 c17 9 62 18 108 21 77 6 121 23 57 23 -26 0
-29 2 -20 14 9 11 9 15 -1 20 -7 3 19 3 57 1 39 -2 84 -4 100 -5z m-432 -167
c-5 -13 -3 -15 13 -8 36 15 93 5 69 -13 -6 -4 -17 -15 -24 -25 -14 -18 -13
-18 31 -12 32 5 48 3 53 -6 5 -7 4 -10 -2 -6 -6 4 -13 0 -17 -8 -3 -10 -19
-15 -45 -15 -23 0 -46 -7 -55 -16 -9 -8 -16 -11 -16 -5 0 6 -9 11 -20 11 -11
0 -20 -4 -20 -9 0 -6 -25 -9 -55 -7 -49 3 -53 2 -38 -11 16 -13 14 -14 -21 -8
-49 8 -93 35 -75 46 8 5 -4 12 -34 20 -45 11 -78 41 -58 53 5 3 12 -2 15 -11
5 -12 9 -14 18 -5 7 7 29 12 50 12 31 0 38 -3 36 -17 -2 -12 4 -19 20 -21 12
-2 22 1 22 7 0 6 -4 11 -10 11 -5 0 -10 3 -10 8 0 4 33 7 72 7 68 0 73 2 76
23 2 12 10 22 17 22 9 0 12 -6 8 -17z m1980 -19 c-18 -8 -33 -17 -33 -22 0 -4
-13 -13 -30 -20 -16 -8 -30 -20 -30 -28 0 -8 -5 -14 -11 -14 -6 0 -24 -9 -40
-21 -29 -21 -31 -39 -3 -39 9 0 12 5 8 11 -5 9 1 10 20 5 16 -4 26 -2 26 5 0
33 81 58 218 66 68 4 92 3 92 -6 0 -8 8 -10 23 -5 28 9 36 9 70 0 16 -4 27 -2
27 4 0 5 -10 11 -22 11 -21 1 -21 2 -3 6 11 3 23 9 26 15 3 5 23 11 45 13 21
3 32 3 24 -1 -37 -14 -60 -28 -60 -36 0 -5 9 -6 20 -3 15 5 20 2 20 -10 0 -11
-5 -15 -15 -12 -8 4 -17 2 -20 -2 -12 -21 31 -20 62 1 l33 23 -27 12 -28 11
28 7 c18 5 24 10 17 15 -6 4 2 7 19 6 17 -1 33 -8 36 -16 5 -12 8 -12 14 -1
10 16 81 24 81 10 0 -5 -7 -12 -15 -15 -21 -8 -19 -24 3 -19 9 3 2 -2 -17 -11
-19 -8 -48 -16 -65 -16 -27 -1 -64 -16 -116 -47 -27 -17 -144 -57 -230 -80
-47 -13 -95 -27 -108 -32 -44 -17 -58 -10 -26 14 35 26 36 62 1 51 -12 -4 -37
-6 -55 -6 -18 1 -71 -14 -117 -33 -46 -19 -92 -35 -102 -35 -10 0 -36 -10 -58
-23 -70 -40 -126 -53 -204 -49 -28 2 -32 4 -21 17 10 12 10 18 0 30 -7 9 -15
13 -18 10 -3 -2 -13 5 -24 17 -10 12 -15 24 -11 27 22 16 9 29 -27 27 -22 0
-40 2 -40 7 0 4 15 7 34 7 40 0 57 16 24 23 l-23 4 23 8 c12 4 22 11 22 15 0
5 8 10 18 13 14 3 12 6 -10 15 -30 12 -45 31 -26 33 7 1 28 2 46 4 42 3 49 11
23 25 -12 6 -21 7 -21 2 0 -5 -11 -7 -24 -5 -33 7 -22 33 13 33 29 0 74 -27
66 -40 -2 -4 9 -13 25 -20 28 -12 35 -25 31 -58 -1 -8 2 -19 8 -25 12 -16 124
-14 129 1 2 7 16 12 32 12 16 0 30 4 32 8 2 4 34 23 73 42 38 19 77 42 86 51
16 16 86 48 104 48 6 0 -5 -7 -22 -15z m208 -338 c30 -8 83 -17 119 -20 117
-11 160 -18 156 -25 -3 -4 -18 -8 -34 -9 -17 -1 -49 -9 -72 -17 -23 -8 -56
-15 -72 -15 -18 0 -27 -4 -22 -11 4 -6 17 -8 33 -3 14 4 69 8 121 10 52 1 109
5 125 8 17 3 100 8 185 12 183 7 186 7 225 23 16 7 45 9 65 6 19 -3 52 -6 73
-7 21 -1 40 -5 43 -10 3 -4 11 -8 17 -8 7 0 6 4 -3 10 -12 8 -10 9 10 8 14 -1
41 2 60 5 24 5 29 4 15 -2 -18 -8 -17 -9 10 -14 17 -2 12 -3 -12 -2 -24 1 -43
-1 -43 -6 0 -9 22 -13 49 -10 7 2 10 -2 6 -8 -3 -6 0 -12 7 -12 7 -1 18 -2 23
-4 6 -1 23 -3 39 -3 54 -3 19 -14 -43 -13 -34 0 -61 -3 -61 -7 0 -4 -57 -5
-127 -2 -71 3 -129 2 -131 -2 -5 -12 -62 -9 -62 3 0 5 -4 7 -10 4 -5 -3 -10 1
-10 10 0 12 -5 15 -16 11 -9 -3 -25 -6 -37 -7 -21 0 -21 -1 1 -10 13 -5 29 -6
35 -3 7 3 3 -2 -7 -10 -23 -19 -36 -20 -36 -5 0 7 -28 8 -89 4 -74 -6 -93 -5
-112 9 -30 20 -40 20 -32 0 5 -13 1 -15 -23 -11 -64 13 -159 17 -139 7 14 -7
-7 -9 -74 -5 -59 3 -103 11 -117 20 -13 8 -36 15 -51 15 -53 0 -1 20 57 21
l55 2 -55 8 c-99 14 -165 34 -162 49 2 7 -3 17 -10 21 -22 14 73 10 133 -5z
m-483 -77 c68 -32 264 -69 310 -58 42 10 108 12 99 3 -3 -3 -25 -8 -48 -10
-45 -4 -67 -14 -31 -14 12 0 21 -5 20 -12 -4 -16 41 -25 127 -27 64 -2 68 -3
51 -16 -11 -8 -16 -15 -10 -16 5 0 65 -2 134 -4 131 -5 179 -17 159 -42 -9
-10 -8 -13 0 -13 21 0 -1 -22 -38 -37 -20 -9 -30 -18 -23 -20 22 -8 12 -20
-17 -20 -27 0 -28 2 -19 23 6 13 14 22 17 19 4 -2 13 0 21 6 31 19 -45 9 -83
-11 -20 -11 -43 -20 -51 -20 -20 0 -31 -57 -16 -76 10 -11 10 -18 -4 -32 -9
-10 -16 -23 -16 -29 0 -19 31 -37 60 -35 16 1 32 -3 36 -10 5 -8 2 -9 -11 -5
-9 4 -23 3 -30 -3 -7 -6 -23 -6 -43 -1 -34 10 -109 3 -118 -10 -3 -5 3 -6 13
-2 13 4 15 3 7 -6 -12 -13 -57 -1 -69 18 -3 6 -17 11 -31 11 -21 0 -36 19 -16
21 4 0 16 3 27 5 11 3 28 5 38 5 9 0 17 4 17 10 0 5 -13 9 -30 9 -18 0 -30 5
-30 13 0 13 -6 16 -54 20 -19 2 -23 7 -22 32 0 17 5 33 11 37 20 15 -7 21 -43
10 -23 -8 -38 -8 -40 -2 -2 6 -18 10 -35 10 l-32 0 27 14 c16 8 34 18 40 23 7
4 33 8 58 8 39 0 45 2 42 20 -2 11 -10 25 -18 31 -8 6 -14 16 -14 23 0 7 -9 9
-25 5 -14 -3 -32 -1 -40 6 -8 6 -20 8 -26 4 -8 -4 -9 -3 -5 4 12 19 -68 15
-106 -5 -18 -10 -35 -21 -36 -26 -8 -18 -43 -28 -57 -17 -11 9 -19 8 -37 -4
-12 -9 -37 -16 -55 -16 -17 0 -35 -4 -38 -10 -3 -5 -1 -10 6 -10 6 0 18 -8 25
-17 10 -14 15 -15 25 -6 16 15 39 5 39 -17 0 -11 5 -22 10 -25 6 -3 10 -13 10
-21 0 -11 -13 -13 -65 -9 -36 2 -64 1 -61 -4 7 -11 -27 -10 -41 1 -7 5 -18 6
-24 2 -7 -4 -9 -3 -6 3 10 16 -79 21 -106 6 -12 -6 -35 -9 -50 -6 -23 5 -34 0
-58 -28 -17 -19 -28 -28 -24 -21 3 6 -1 15 -9 18 -21 8 -20 30 2 44 14 9 11
10 -15 7 -18 -2 -33 -1 -33 1 0 10 36 31 52 32 9 0 20 4 23 10 7 12 -47 3 -87
-14 -31 -12 -30 -11 -22 -54 5 -23 14 -34 37 -41 29 -11 30 -12 12 -31 -18
-20 -17 -20 31 -20 l48 0 -44 -23 c-33 -17 -48 -20 -55 -12 -10 11 -70 31
-126 42 -15 3 -37 -1 -50 -8 -13 -7 -27 -12 -31 -11 -5 1 -8 -2 -8 -7 0 -5
-14 -14 -31 -20 -30 -10 -31 -10 -27 14 6 28 -1 32 -21 13 -10 -11 -11 -10 -6
4 4 10 15 20 26 23 22 7 24 16 7 34 -11 10 -10 11 5 6 12 -5 17 -2 17 9 0 9
-5 16 -11 16 -5 0 -7 5 -4 10 3 6 2 10 -4 10 -6 0 -15 9 -21 20 -12 23 5 50
27 43 16 -6 27 17 14 30 -8 8 6 18 56 39 38 15 76 27 86 27 9 1 17 6 17 11 0
6 29 10 66 10 38 0 63 4 59 9 -11 18 32 30 98 28 62 -2 66 -3 63 -24 -6 -28
27 -37 42 -12 10 15 9 23 -5 39 -10 11 -25 20 -35 20 -10 0 -18 7 -18 15 0 8
-4 15 -10 15 -15 0 -12 15 9 41 17 22 26 24 135 27 104 4 122 2 164 -19z
m-1508 -194 c14 -17 45 -21 35 -5 -6 10 56 15 130 9 22 -2 68 -3 103 -3 54 1
62 -1 62 -18 0 -10 -6 -18 -13 -18 -16 0 -17 -81 -1 -97 7 -7 23 -13 36 -13
33 0 55 -15 33 -24 -9 -3 -13 -11 -9 -17 3 -6 0 -15 -7 -20 -9 -5 -2 -7 20 -4
19 2 39 9 44 14 18 18 37 13 47 -11 5 -13 9 -17 9 -10 1 14 21 17 21 2 0 -13
-86 -53 -99 -46 -5 4 -12 2 -16 -4 -11 -17 -22 -11 -35 19 -6 16 -19 30 -28
29 -10 0 -27 3 -39 7 -17 6 -23 3 -23 -9 0 -12 -9 -16 -34 -16 -18 0 -39 -6
-45 -14 -8 -10 -38 -14 -99 -15 -48 0 -97 -3 -110 -5 -34 -7 -55 3 -41 20 6 8
18 14 25 14 8 0 14 9 14 19 0 11 9 22 19 26 11 3 18 12 15 18 -6 16 -91 43
-121 39 -12 -1 -24 2 -28 8 -3 5 0 10 9 10 8 0 16 6 19 13 3 9 7 9 18 1 16
-13 79 -24 79 -14 0 8 -60 27 -103 33 -18 3 -30 0 -34 -10 -4 -11 -8 -10 -18
4 -21 28 -8 34 68 34 40 0 82 -1 94 -1 11 0 23 6 26 14 5 13 -1 15 -47 19 -20
2 -22 5 -15 20 12 21 23 22 39 2z m866 -580 c12 -8 24 -11 28 -8 4 4 13 8 21
9 15 2 10 -20 -9 -45 -8 -10 -8 -15 1 -18 7 -2 10 -10 7 -17 -3 -8 2 -20 10
-29 20 -20 20 -27 1 -27 -22 0 -18 -28 5 -40 11 -6 18 -15 15 -20 -7 -12 -44
-8 -42 4 1 6 -13 18 -30 26 -22 10 -33 22 -33 37 0 25 -35 50 -45 33 -10 -15
-35 -12 -35 5 0 10 -10 15 -32 15 -38 0 -52 -8 -61 -33 -4 -10 -12 -15 -17
-12 -6 4 -2 -9 9 -29 l20 -35 -44 4 c-31 3 -45 1 -46 -8 0 -6 -4 -3 -8 8 -10
25 11 39 45 31 22 -6 23 -5 13 13 -9 13 -29 21 -68 25 -81 10 -85 11 -96 18
-6 4 -79 10 -163 14 -189 9 -181 24 14 24 91 0 158 5 190 14 27 8 93 16 147
19 55 2 102 9 105 14 7 11 33 20 62 22 9 0 25 -6 36 -14z m629 -365 c8 0 15
-4 15 -10 0 -5 10 -20 23 -32 13 -13 22 -29 20 -35 -3 -7 3 -11 14 -9 10 2 34
-5 53 -16 19 -10 28 -17 19 -14 -9 2 -27 -5 -39 -16 -33 -31 -165 -39 -275
-18 -33 6 -70 13 -83 15 -13 2 -29 9 -37 15 -8 7 -26 9 -39 6 -14 -3 -28 -2
-31 4 -3 5 -1 10 5 10 7 0 9 8 5 21 -6 19 -5 20 14 9 12 -6 19 -15 16 -20 -3
-5 17 2 45 17 27 14 50 31 50 38 0 7 7 15 15 19 17 6 21 -9 5 -19 -6 -4 -5
-12 5 -21 9 -10 12 -25 8 -44 -6 -33 10 -41 26 -12 10 16 12 16 25 0 18 -24
23 -23 28 7 4 17 0 29 -11 35 -10 6 -11 10 -3 10 14 0 12 21 -3 32 -5 4 -6 10
-2 14 4 4 13 2 19 -4 17 -17 25 -15 31 9 4 16 11 19 26 14 16 -5 21 -2 21 12
1 17 1 17 11 1 5 -10 17 -18 24 -18z"/>
</g>
</svg>
