<?xml version="1.0" standalone="no"?>
<!DOCTYPE svg PUBLIC "-//W3C//DTD SVG 20010904//EN"
 "http://www.w3.org/TR/2001/REC-SVG-20010904/DTD/svg10.dtd">
<svg version="1.0" xmlns="http://www.w3.org/2000/svg"
 width="640.000000pt" height="288.000000pt" viewBox="0 0 640.000000 288.000000"
 preserveAspectRatio="xMidYMid meet">
<metadata>
Created by potrace 1.15, written by Peter Selinger 2001-2017
</metadata>
<g transform="translate(0.000000,288.000000) scale(0.100000,-0.100000)"
fill="#000000" stroke="none">
<path d="M0 2450 c0 -384 2 -430 16 -430 23 0 44 25 44 54 0 26 1 26 81 26 86
0 166 16 187 37 14 14 78 13 101 -1 8 -5 16 -4 20 2 10 17 81 19 91 2 8 -13
10 -12 10 2 0 10 6 15 13 13 36 -14 303 -8 412 9 17 2 62 7 100 11 39 4 75 11
80 15 10 7 104 22 138 21 9 0 15 4 13 8 -3 5 12 7 34 6 22 -1 37 1 35 5 -3 5
4 6 15 3 11 -3 43 2 71 11 27 9 87 19 132 22 45 2 84 9 85 14 2 6 22 10 45 10
23 0 74 5 112 11 39 5 90 12 115 14 25 3 81 12 125 21 94 18 152 28 255 43 41
6 83 14 93 17 14 4 17 3 12 -6 -5 -9 -4 -11 4 -6 6 4 9 12 6 17 -4 5 5 9 19 9
14 0 28 5 31 10 3 6 11 10 16 10 6 0 7 -6 3 -12 -5 -9 -2 -9 9 1 9 7 17 19 17
26 0 7 7 18 15 25 16 13 -24 -70 -48 -100 -15 -19 -76 -58 -139 -87 -37 -17
-54 -20 -78 -13 -26 7 -39 4 -77 -20 -32 -20 -50 -27 -58 -20 -7 5 -15 7 -18
3 -4 -3 -30 -14 -58 -23 l-51 -18 -26 39 c-35 49 -56 49 -82 0 -20 -40 -32
-47 -130 -71 -25 -6 -71 -22 -103 -36 -42 -18 -68 -24 -90 -20 -18 3 -49 7
-70 9 -21 2 -42 9 -47 17 -7 12 -15 13 -40 3 -37 -14 -56 -9 -63 18 -9 35 -43
22 -87 -33 -23 -29 -45 -59 -49 -66 -6 -11 -15 -10 -52 2 -57 20 -181 11 -225
-15 -17 -11 -39 -19 -48 -19 -9 0 -30 -7 -46 -15 -17 -9 -68 -17 -122 -20
-105 -6 -170 10 -208 50 -13 14 -31 25 -40 25 -9 0 -49 -23 -89 -51 -40 -28
-78 -48 -85 -46 -7 3 -23 -4 -37 -14 -13 -10 -28 -19 -34 -19 -5 0 -37 -18
-70 -40 -33 -22 -67 -40 -76 -40 -9 0 -22 -7 -29 -15 -7 -8 -18 -15 -24 -15
-6 -1 -21 -9 -33 -19 l-23 -19 0 -891 0 -891 3200 0 3200 0 0 1440 0 1440
-3200 0 -3200 0 0 -430z m4045 -251 c4 -11 11 -16 17 -13 21 13 156 21 183 10
22 -8 16 -68 -7 -74 -13 -3 -16 -8 -8 -16 7 -9 4 -12 -11 -12 -16 1 -44 -25
-44 -40 0 -1 -10 -5 -23 -8 -17 -6 -24 -3 -31 16 -8 20 -10 21 -16 6 -10 -25
-45 -23 -45 1 0 11 -4 22 -9 25 -5 3 -9 26 -8 50 0 27 -7 55 -18 73 -15 23
-15 25 -2 15 9 -8 19 -22 22 -33z m2232 -692 c-10 -7 -26 -18 -35 -25 -15 -11
-14 -12 8 -7 21 5 22 4 7 -5 -17 -11 -45 -16 -94 -19 -13 0 -23 -5 -23 -11 0
-5 8 -7 18 -4 9 2 -3 -5 -28 -17 -25 -11 -56 -21 -70 -21 -32 0 -46 -8 -30
-18 6 -4 -8 -12 -36 -20 -26 -7 -83 -33 -127 -56 -44 -24 -84 -41 -88 -38 -5
3 -9 1 -9 -4 0 -6 -7 -13 -16 -16 -8 -3 -13 -2 -10 3 4 5 -5 4 -18 -2 -13 -7
-22 -15 -19 -20 3 -5 -1 -7 -8 -6 -15 2 -30 -3 -131 -50 -37 -16 -83 -37 -103
-45 -19 -8 -35 -20 -35 -26 0 -7 -8 -9 -20 -5 -11 3 -28 1 -37 -5 -15 -9 -14
-10 7 -5 22 5 23 4 7 -5 -10 -7 -25 -9 -33 -6 -8 3 -14 1 -14 -4 0 -6 -7 -10
-15 -10 -9 0 -28 -6 -43 -14 -47 -24 -76 -30 -66 -15 6 11 5 12 -7 3 -17 -14
-91 -39 -103 -36 -5 2 -27 -4 -48 -13 -22 -8 -37 -11 -33 -5 3 5 14 10 23 10
15 0 15 2 2 11 -12 8 -11 9 5 7 12 -3 25 4 33 17 8 11 11 13 9 4 -4 -13 1 -15
32 -9 20 3 47 14 61 22 14 9 54 25 90 36 36 11 80 28 97 37 18 9 38 13 44 9 8
-5 9 -3 4 6 -6 10 -4 12 8 7 10 -4 17 -1 17 5 0 6 3 9 6 6 7 -7 60 14 104 41
l31 18 -30 -1 c-16 -1 -29 -5 -28 -10 1 -5 -4 -11 -12 -14 -8 -3 -11 0 -7 7
10 15 1 14 -34 -4 -17 -9 -30 -12 -30 -7 0 5 30 21 68 36 37 15 84 38 104 52
43 28 56 31 33 8 -9 -9 -13 -19 -10 -22 3 -4 10 0 15 8 6 8 10 11 10 6 0 -5 8
-2 18 6 9 9 35 21 57 28 22 7 49 17 60 23 11 6 25 12 30 13 6 1 19 6 29 10 15
6 18 4 12 -7 -4 -8 -1 -6 7 4 9 10 21 20 29 21 7 2 24 8 38 13 14 6 44 19 68
28 23 9 42 22 42 29 0 7 3 7 8 1 10 -14 44 -16 35 -2 -4 6 0 8 11 4 9 -4 15
-3 12 1 -6 10 130 82 153 81 14 0 13 -2 -2 -12z m-832 -889 c-8 -13 -19 -23
-23 -23 -8 0 -80 -49 -115 -78 l-22 -18 22 10 c49 24 32 -2 -21 -31 -14 -8
-17 -7 -11 2 4 7 4 11 -1 8 -48 -22 -64 -33 -60 -44 2 -6 -8 -17 -22 -24 -15
-6 -53 -25 -85 -42 -32 -16 -60 -28 -62 -26 -2 2 17 15 42 28 25 13 42 25 37
27 -18 6 -147 -69 -134 -77 9 -6 0 -15 -27 -29 -22 -11 -43 -18 -45 -16 -5 5
-78 -30 -120 -59 -19 -12 -32 -15 -44 -8 -15 8 -14 11 6 30 13 12 27 19 32 16
4 -3 8 0 8 5 0 6 7 11 16 11 8 0 13 -4 10 -9 -11 -17 32 1 50 20 21 23 7 25
-18 2 -10 -9 -18 -12 -17 -7 0 5 13 19 30 32 20 16 27 19 23 8 -3 -9 -1 -16 5
-16 7 0 14 7 18 16 3 8 11 13 17 11 7 -3 23 1 37 9 14 8 18 13 9 14 -13 0 -13
2 0 9 8 6 18 7 22 5 4 -3 8 -1 8 4 0 5 18 15 40 22 22 7 40 17 40 22 0 4 7 8
16 8 9 0 54 21 101 46 65 36 83 50 78 63 -5 12 -3 13 6 4 9 -9 21 -5 53 20 22
18 43 35 46 38 3 4 15 9 28 13 12 4 22 12 22 17 0 5 5 9 11 9 5 0 3 -10 -6
-22z"/>
</g>
</svg>
