<?xml version="1.0" standalone="no"?>
<!DOCTYPE svg PUBLIC "-//W3C//DTD SVG 20010904//EN"
 "http://www.w3.org/TR/2001/REC-SVG-20010904/DTD/svg10.dtd">
<svg version="1.0" xmlns="http://www.w3.org/2000/svg"
 width="640.000000pt" height="426.000000pt" viewBox="0 0 640.000000 426.000000"
 preserveAspectRatio="xMidYMid meet">
<metadata>
Created by potrace 1.15, written by Peter Selinger 2001-2017
</metadata>
<g transform="translate(0.000000,426.000000) scale(0.100000,-0.100000)"
fill="#000000" stroke="none">
<path d="M0 3366 c0 -706 3 -895 13 -899 9 -4 9 -6 0 -6 -8 -1 -13 -16 -13
-39 l0 -39 158 -7 c231 -12 632 -15 667 -5 20 5 1 7 -58 6 -48 -1 -87 1 -87 4
0 4 -6 6 -12 6 -7 -1 -49 2 -93 6 -113 11 -164 15 -294 23 -76 4 -109 9 -100
16 10 7 4 8 -19 5 -19 -2 -37 2 -43 10 -6 7 -16 10 -22 6 -19 -12 -56 -9 -61
4 -7 17 -18 17 334 -6 412 -27 680 -36 680 -22 0 6 -19 11 -42 12 -24 1 -50 2
-58 3 -8 2 -30 3 -47 4 -18 1 -33 6 -33 10 0 7 23 14 125 36 5 2 -62 11 -150
21 -200 23 -267 32 -235 34 14 0 144 -13 290 -29 363 -41 434 -48 595 -55 77
-3 153 -9 169 -12 28 -5 29 -4 13 11 -9 9 -31 16 -49 16 -195 -6 -299 7 -223
26 26 6 228 0 355 -12 47 -4 61 -2 50 5 -11 8 -2 11 40 12 30 1 44 3 30 6 -14
2 -41 6 -60 10 l-35 7 40 6 c33 5 22 8 -70 19 -229 29 -229 29 -125 28 154 -1
197 2 180 13 -13 8 -12 10 3 10 9 0 17 -3 17 -7 0 -5 48 -9 108 -10 97 -2 103
-1 69 10 -22 7 -35 16 -30 21 4 5 -29 6 -77 2 -48 -4 -91 -2 -99 3 -10 7 -4 8
20 6 19 -1 63 1 99 5 43 5 -1 7 -130 5 -107 -1 -229 -7 -270 -13 -246 -34
-821 -52 -875 -27 -16 7 -50 18 -75 24 -39 9 -32 10 60 9 233 -3 285 8 84 18
-65 4 -126 6 -134 7 -8 0 -19 3 -25 7 -5 4 -30 8 -55 9 -462 16 -461 18 15 21
259 2 459 4 445 6 -14 2 -70 6 -125 10 -76 5 -94 9 -76 15 30 12 22 20 -26 30
-51 11 154 0 227 -12 72 -12 94 -10 50 4 l-35 11 35 7 c32 7 31 7 -12 6 -50
-2 -52 8 -3 16 17 3 7 4 -22 3 -29 -1 -50 1 -47 6 3 4 22 8 42 9 35 0 121 27
94 28 -7 1 -11 5 -8 10 3 5 -13 11 -37 15 -59 9 -159 38 -153 44 11 10 205 41
264 42 40 0 61 4 57 10 -9 15 4 12 21 -5 9 -8 26 -15 38 -15 13 0 38 -3 55 -6
26 -5 30 -4 25 9 -3 9 -31 23 -62 32 -32 8 -64 20 -72 25 -8 6 -22 13 -30 16
-56 22 -110 50 -110 57 0 4 -5 5 -10 2 -5 -3 -10 -4 -10 -1 0 3 16 12 35 21
31 12 44 12 93 1 100 -24 182 -37 191 -32 5 3 14 -1 21 -9 7 -8 24 -15 38 -15
l26 0 -20 21 c-12 11 -38 27 -60 35 l-39 14 50 -5 c28 -4 61 -8 75 -10 21 -4
22 -3 5 4 -11 5 -56 14 -99 21 -111 17 -140 32 -51 26 38 -2 78 0 88 6 19 10
100 -19 91 -33 -2 -4 9 -10 26 -14 17 -4 28 -10 25 -14 -2 -5 1 -15 8 -24 13
-18 104 -37 94 -20 -9 14 36 22 60 11 16 -8 16 -8 1 4 -9 7 -25 18 -35 25 -16
10 -14 12 18 12 45 1 143 -31 114 -37 -11 -2 -26 -9 -34 -15 -11 -10 -9 -13
10 -18 24 -6 24 -6 -6 -18 -16 -7 -33 -17 -37 -23 -3 -7 -34 -14 -67 -16 -33
-2 -59 -8 -56 -12 3 -5 14 -6 24 -3 10 3 22 0 25 -6 5 -7 -3 -11 -21 -12 -15
-1 -4 -5 25 -9 29 -4 69 -4 89 1 49 11 54 4 9 -12 -20 -7 -36 -16 -36 -19 0
-16 51 -31 112 -33 36 -1 64 -5 61 -9 -4 -7 22 -10 97 -12 14 -1 30 -4 35 -7
6 -4 39 -10 75 -14 36 -4 90 -15 120 -25 54 -17 172 -25 563 -35 120 -3 157 8
67 20 -46 6 -62 17 -42 28 4 2 0 2 -8 0 -8 -3 -30 -6 -48 -8 -28 -3 -31 -1
-21 12 11 12 8 13 -15 7 -19 -4 -31 -2 -36 7 -5 7 -27 13 -49 13 -23 1 -41 4
-41 8 0 4 -18 5 -40 3 -30 -3 -40 0 -40 11 0 8 -4 12 -10 9 -5 -3 -26 -3 -45
1 -31 5 -34 8 -23 22 11 13 10 15 -9 10 -13 -4 -23 -3 -23 1 0 11 -154 38
-285 52 -137 13 -157 17 -150 29 3 4 -21 12 -52 16 l-58 8 37 10 c20 5 40 16
42 23 3 8 2 12 -3 9 -4 -3 -17 1 -27 9 -25 19 -8 19 77 -2 38 -9 72 -13 76
-10 13 14 -32 35 -107 52 -41 9 -91 21 -112 27 -20 6 -47 8 -60 5 -21 -6 -27
-1 -39 26 -12 28 -19 32 -57 35 -23 2 -40 7 -37 13 4 5 2 9 -3 9 -10 0 -26
-29 -24 -42 3 -11 -12 -10 -45 3 -15 7 -41 11 -57 10 l-29 -3 22 28 c21 27 21
48 -1 26 -7 -7 -21 -12 -32 -11 -20 0 -20 1 2 9 12 5 22 14 22 20 0 14 -17 13
-23 -2 -4 -9 -8 -10 -14 -3 -4 6 -21 12 -36 13 -16 1 -34 5 -40 9 -7 4 -20 6
-29 5 -10 -2 -39 7 -65 19 -27 12 -58 21 -71 20 -21 -1 -22 1 -8 15 18 17 25
16 176 -20 301 -74 360 -86 427 -87 40 -1 70 -5 67 -10 -3 -5 -1 -9 5 -9 5 0
11 4 13 9 2 5 38 3 83 -6 44 -8 104 -16 134 -17 32 -2 57 -8 59 -15 3 -8 8 -9
16 -2 9 7 23 7 47 0 40 -13 70 -19 123 -26 22 -3 53 -14 70 -24 17 -10 38 -19
46 -19 8 0 23 -11 35 -24 11 -13 33 -27 50 -31 29 -6 29 -6 11 14 -11 12 -25
21 -33 21 -7 0 -13 5 -13 10 0 6 7 10 15 10 8 0 15 -5 15 -12 0 -6 3 -8 6 -5
4 3 16 0 28 -8 11 -8 30 -15 42 -15 29 0 84 -20 84 -31 0 -4 -8 -6 -17 -3 -10
3 0 -5 22 -17 35 -20 98 -39 175 -55 14 -3 32 -7 40 -9 8 -3 45 -5 83 -6 37
-1 70 -6 73 -10 3 -5 14 -9 24 -9 10 0 21 -6 23 -12 4 -10 8 -10 16 2 13 19
-41 38 -111 38 -31 1 -57 7 -67 16 -11 10 -36 16 -63 16 -53 0 -71 21 -32 39
13 6 24 17 24 26 0 18 5 18 90 4 70 -11 100 -27 78 -40 -8 -5 -3 -10 15 -14
15 -4 27 -12 27 -17 0 -5 12 -7 28 -4 15 3 41 2 57 -3 l30 -9 -37 -1 c-56 -1
-46 -16 13 -18 54 -3 93 -18 84 -34 -4 -5 10 -9 30 -9 20 0 34 -4 31 -9 -14
-22 144 -21 187 1 10 5 49 13 88 17 53 5 69 4 69 -5 0 -7 -16 -16 -35 -20 -19
-3 -33 -10 -30 -14 3 -5 -3 -6 -13 -3 -11 2 -25 -1 -33 -9 -26 -24 -89 -48
-129 -48 -21 0 -42 -4 -45 -10 -3 -5 -15 -10 -25 -10 -10 0 -23 -6 -27 -14 -4
-7 -15 -15 -23 -18 -10 -3 3 -14 35 -30 36 -18 86 -30 176 -41 l127 -17 63 24
c56 21 121 50 237 102 33 16 43 34 17 34 -8 0 -15 5 -15 10 0 6 -10 14 -22 19
-13 5 -39 20 -58 33 -45 31 -116 59 -125 50 -4 -4 -5 -1 -3 6 2 8 -6 19 -16
25 -21 13 -60 44 -82 65 -7 6 -17 12 -23 12 -6 0 -11 5 -11 10 0 6 25 -3 55
-19 30 -16 69 -33 87 -37 18 -3 54 -25 79 -48 39 -35 76 -57 186 -108 21 -10
26 -9 98 17 l20 8 -20 -16 c-11 -9 -16 -17 -11 -17 5 0 99 39 208 86 110 47
202 84 204 82 3 -3 -177 -90 -361 -173 -59 -27 -75 -39 -65 -46 15 -9 12 -10
-22 -13 -7 -1 -16 -5 -20 -11 -5 -6 -8 -5 -8 3 0 6 -5 12 -10 12 -15 0 -293
-110 -304 -121 -5 -4 2 -10 15 -13 130 -30 156 -32 119 -11 -24 15 -24 15 15
10 22 -3 119 -12 215 -21 96 -8 178 -18 183 -21 4 -2 5 7 1 21 -8 32 0 33 37
2 15 -13 46 -27 69 -31 40 -7 51 -18 27 -29 -6 -3 -2 -3 10 -1 12 3 24 2 27
-4 3 -5 15 -7 26 -4 10 3 42 0 71 -7 28 -7 62 -12 75 -12 13 -1 21 -4 18 -9
-3 -5 -4 -9 -2 -9 2 -1 48 -9 102 -19 105 -19 179 -16 141 7 -17 10 -13 11 30
11 28 0 84 -4 125 -10 41 -6 112 -14 156 -18 51 -5 90 -14 105 -25 l24 -18
-35 7 c-52 10 -308 18 -359 10 l-44 -7 22 -21 c17 -18 32 -21 88 -20 49 1 62
-1 48 -8 -13 -6 5 -7 55 -3 77 6 109 18 74 30 -47 15 -46 19 5 22 30 2 59 -2
64 -7 8 -8 5 -11 -8 -11 -13 0 -16 -3 -9 -10 7 -7 20 -7 40 -1 36 12 186 19
175 8 -4 -4 -31 -10 -59 -14 -28 -3 -49 -10 -46 -14 3 -5 -23 -9 -58 -10 -87
-1 -114 -10 -111 -37 3 -20 -2 -22 -60 -23 -134 -2 -210 -9 -225 -21 -13 -10
-14 -10 -8 0 9 14 2 15 -22 3 -9 -5 -26 -13 -37 -17 -15 -6 -3 -10 43 -17 43
-7 62 -14 62 -24 0 -10 -9 -14 -27 -13 -42 3 -49 1 -33 -11 12 -8 11 -9 -5 -5
-11 2 -49 1 -85 -3 -36 -5 -53 -9 -37 -10 15 0 27 -5 27 -10 0 -10 -18 -12
-97 -13 -29 -1 -53 -5 -53 -9 0 -4 -12 -10 -27 -12 -26 -4 -25 -4 5 -6 19 0
31 -5 27 -11 -4 -6 7 -10 24 -10 20 0 31 -5 31 -14 0 -8 6 -17 13 -19 8 -4 7
-6 -3 -6 -8 -1 -28 6 -44 14 -16 9 -35 14 -42 11 -7 -3 -14 0 -16 5 -2 6 -12
12 -23 14 -11 2 -22 4 -25 4 -3 1 2 6 10 11 12 8 10 10 -10 10 -14 0 -37 6
-51 14 -14 7 -37 16 -52 20 -23 5 -27 3 -27 -16 -1 -21 -2 -22 -14 -6 -15 20
-27 24 -23 7 2 -12 -41 -20 -58 -11 -23 14 -64 10 -84 -7 -18 -16 -28 -17 -55
-10 -22 6 -58 5 -102 -2 -38 -6 -85 -13 -104 -16 -19 -3 -41 -10 -49 -16 -10
-9 -16 -7 -26 6 -13 18 -55 24 -55 8 0 -5 10 -11 23 -14 12 -2 -4 -4 -36 -5
-32 0 -64 -5 -71 -11 -8 -7 -21 -6 -41 5 -36 19 -96 10 -127 -18 -13 -11 -16
-17 -8 -13 8 4 4 -3 -10 -14 -32 -26 -137 -37 -133 -13 2 6 -5 12 -15 13 -9 0
-41 1 -70 3 -29 1 -55 -1 -58 -6 -3 -4 -12 -8 -20 -8 -8 0 -12 5 -9 10 3 6 -1
10 -9 10 -9 0 -16 -4 -16 -10 0 -5 -11 -10 -24 -10 -13 0 -29 -7 -36 -15 -7
-8 -17 -15 -22 -15 -17 0 14 31 42 42 l25 10 -24 9 c-14 6 -30 8 -38 5 -7 -3
-20 2 -28 11 -13 13 -14 18 -3 25 8 6 4 7 -12 2 -14 -4 -26 -11 -28 -15 -5
-12 -39 -11 -47 0 -3 5 3 12 12 14 10 3 -4 5 -30 6 -37 1 -53 -4 -71 -21 -12
-13 -39 -32 -59 -43 -36 -19 -37 -19 -50 -1 -10 13 -16 15 -21 8 -16 -27 8
-32 122 -28 64 3 137 8 162 12 40 7 43 6 30 -8 -9 -8 -36 -16 -60 -17 -110 -4
-128 -7 -127 -16 2 -11 -49 -16 -71 -7 -11 4 -11 6 0 13 8 5 -15 8 -57 8 -53
-1 -61 -3 -35 -8 33 -6 34 -7 10 -14 -14 -4 -42 -7 -62 -7 -20 0 -40 -5 -43
-10 -4 -6 7 -10 27 -10 35 0 77 -19 48 -21 -25 -2 -103 -2 -145 0 -51 2 -85
-3 -113 -18 -25 -13 -30 -26 -7 -18 23 9 26 -8 3 -22 -11 -7 -18 -8 -14 -3 3
5 -5 19 -18 31 -13 13 -26 18 -30 13 -3 -5 -19 -9 -35 -10 -16 0 -39 -5 -50
-11 -11 -6 -27 -11 -36 -11 -16 0 -16 2 -1 25 16 24 15 25 -8 31 -30 7 -49 -3
-42 -22 6 -16 1 -16 -65 -5 -25 4 -54 4 -65 0 -15 -6 -12 -8 12 -8 31 -1 60
-22 48 -34 -4 -3 -15 -2 -26 4 -11 6 -60 8 -116 6 -53 -2 -108 -1 -122 3 -21
7 -22 8 -5 10 11 1 28 2 38 1 9 -1 17 3 17 8 0 6 -10 11 -22 11 -23 1 -23 1 2
15 19 11 21 14 8 15 -10 0 -26 -8 -37 -19 -10 -10 -42 -24 -71 -31 -36 -9 -48
-15 -39 -21 9 -6 -6 -9 -41 -10 l-55 -1 42 -9 c23 -4 55 -4 70 0 15 4 54 5 86
1 66 -7 92 -24 56 -35 -14 -5 -25 -3 -27 4 -5 15 -125 14 -140 -1 -10 -10 -17
-10 -32 0 -30 18 -102 15 -151 -8 -45 -20 -89 -26 -89 -12 0 5 12 13 28 19 27
11 26 11 -12 12 -22 1 -72 -7 -110 -18 -103 -27 -199 -43 -217 -36 -9 3 -49
-1 -90 -10 -41 -8 -85 -15 -99 -15 -15 0 -30 -4 -35 -9 -6 -5 -30 -12 -55 -15
-45 -6 -46 -6 -45 21 0 25 -4 28 -37 31 -48 4 -49 18 -3 26 20 4 33 11 31 15
-3 4 14 14 37 21 37 12 39 14 17 18 -14 2 -30 8 -36 13 -22 18 -224 11 -314
-10 -94 -23 -268 -29 -287 -10 -8 8 -13 8 -17 0 -10 -16 -41 -14 -55 3 -10 11
-8 15 6 19 14 4 13 5 -4 6 -13 0 -23 -3 -23 -8 0 -5 -9 -7 -21 -4 -11 3 -17 9
-12 14 11 11 104 14 127 4 14 -6 17 -5 12 3 -4 7 -6 12 -4 13 2 1 70 7 152 13
83 7 151 17 153 23 3 7 19 7 49 2 25 -5 77 -8 117 -7 40 2 110 -1 157 -5 52
-5 108 -3 145 3 33 6 98 13 145 15 76 3 215 27 226 38 3 3 -10 17 -27 32 -26
21 -39 26 -63 21 -26 -5 -28 -4 -12 5 13 8 29 8 55 1 20 -6 65 -9 101 -7 36 1
146 6 245 10 99 3 197 8 218 11 21 3 74 6 117 6 82 1 94 5 44 14 -15 3 -31 7
-36 10 -4 3 -8 2 -8 -3 0 -4 -93 -9 -206 -11 -140 -2 -204 1 -199 8 4 7 -25
10 -86 10 -283 0 -889 17 -897 25 -2 2 20 8 50 13 45 8 28 10 -117 12 -200 3
-163 17 55 21 l135 3 -150 6 c-82 4 -170 8 -195 9 -32 2 -39 5 -26 10 18 7 18
8 2 14 -9 4 -61 8 -114 8 -73 2 -88 4 -62 10 19 4 63 5 97 2 79 -7 243 15 236
33 -5 13 -62 19 -343 34 -96 5 -201 12 -232 16 l-58 6 0 -1186 0 -1186 3200 0
3200 0 0 2130 0 2130 -3200 0 -3200 0 0 -894z m3004 259 c-3 -7 -12 -16 -20
-19 -12 -4 -12 -10 -4 -26 11 -20 40 -28 40 -11 0 16 53 -2 57 -20 4 -14 11
-17 28 -13 13 3 26 1 30 -5 3 -6 11 -9 16 -6 5 4 9 1 9 -5 0 -16 -43 -30 -57
-18 -7 5 -17 7 -23 3 -5 -3 -13 0 -16 8 -4 11 -25 14 -87 14 -80 -1 -110 3
-122 15 -3 3 1 8 10 11 8 4 15 2 15 -4 0 -5 11 -2 25 8 13 10 25 26 25 36 0
15 -5 17 -29 12 -16 -3 -32 -2 -35 3 -3 6 10 13 29 16 19 4 35 10 35 14 0 4
18 6 39 4 28 -3 38 -8 35 -17z m-1154 -61 c0 5 7 3 15 -4 8 -7 33 -14 56 -16
22 -2 52 -12 67 -23 15 -10 40 -19 57 -19 16 0 31 -5 33 -11 2 -6 17 -11 33
-11 16 0 29 -5 29 -11 0 -5 -4 -8 -9 -4 -5 3 -13 0 -17 -6 -4 -8 3 -9 27 -4
43 10 45 10 94 -8 38 -15 38 -18 -4 -29 -8 -2 -3 -8 12 -15 22 -10 25 -10 20
2 -3 9 1 16 8 16 61 5 88 2 111 -13 14 -10 34 -18 43 -18 9 0 14 -4 11 -9 -4
-5 0 -12 6 -15 7 -3 3 -3 -9 0 -17 4 -21 2 -17 -9 3 -8 21 -18 40 -21 45 -9
44 -26 -1 -19 -38 6 -41 2 -25 -28 13 -24 -5 -25 -57 -4 -40 17 -67 20 -59 6
4 -5 -7 -4 -23 2 -17 6 -28 14 -25 18 2 4 -2 7 -9 6 -31 -1 -48 4 -43 12 7 11
-22 23 -35 15 -5 -3 -9 2 -9 10 0 8 -10 18 -22 22 -36 11 -81 52 -72 66 4 6
-1 8 -14 4 -12 -4 -22 -2 -25 7 -3 7 -23 19 -45 26 -23 8 -43 19 -45 25 -3 6
-19 13 -37 14 -18 1 -45 11 -60 22 -16 11 -34 20 -42 21 -7 0 -4 4 7 8 12 5
23 4 27 -3 4 -6 8 -7 8 -2z m887 -1646 c15 -7 31 -17 34 -22 4 -5 14 -6 23 -3
10 4 16 1 16 -8 0 -18 -1 -18 -48 0 -25 10 -53 14 -78 10 -48 -8 -86 -13 -97
-14 -5 -1 -6 -4 -4 -8 3 -5 -13 -8 -36 -9 -22 0 -43 -6 -45 -12 -2 -7 -7 -10
-12 -7 -4 3 -13 -2 -20 -10 -10 -12 -7 -13 22 -4 53 17 149 12 170 -9 9 -9 6
-12 -17 -12 -59 0 -14 -11 68 -17 73 -5 85 -3 83 10 -5 37 -25 46 -102 42 -70
-3 -100 8 -51 20 26 6 184 -9 212 -20 16 -6 13 -1 -10 25 -20 22 -24 31 -12
27 22 -8 49 2 41 15 -4 6 2 6 14 -1 11 -6 23 -16 25 -23 4 -8 6 -7 6 3 1 11
12 18 36 21 19 2 35 0 35 -4 0 -4 9 -8 20 -8 14 0 20 -6 18 -17 -3 -16 7 -18
115 -16 76 2 116 -1 112 -7 -13 -22 23 -8 44 16 17 20 30 25 52 22 17 -3 32
-1 35 4 3 4 12 8 20 8 11 0 14 -6 9 -22 -3 -13 -3 -18 2 -12 11 16 53 28 53
16 0 -6 -6 -13 -12 -15 -7 -3 -3 -6 10 -6 18 -1 22 -6 18 -25 -3 -18 -1 -23 9
-20 7 3 16 1 19 -5 9 -13 -62 -43 -84 -36 -10 3 -30 0 -46 -6 -16 -6 -53 -11
-83 -10 -29 1 -59 -3 -66 -9 -8 -6 -21 -10 -31 -8 -9 2 -19 -2 -21 -8 -2 -7
12 -15 32 -18 19 -4 35 -12 35 -18 0 -9 3 -9 12 0 15 15 48 16 48 2 0 -8 -37
-15 -62 -11 -5 0 -8 -3 -8 -9 0 -5 -18 -21 -40 -35 -44 -28 -133 -35 -173 -14
-12 7 -60 14 -107 15 -47 2 -95 5 -107 7 -26 4 -43 17 -23 17 7 0 11 2 8 5 -2
3 -31 -4 -63 -15 -54 -19 -108 -20 -155 -3 -28 10 -75 14 -182 14 -74 0 -110
4 -117 13 -11 13 -17 14 -96 2 -33 -5 -61 -3 -80 5 -17 7 -32 12 -35 12 -3 -1
-20 -4 -39 -8 -26 -5 -32 -4 -26 5 6 10 1 11 -18 6 -14 -3 -28 -2 -31 3 -6 8
-111 7 -201 -4 -27 -3 -66 -7 -85 -9 -19 -2 -51 -6 -72 -10 -26 -6 -46 -3 -72
9 -37 18 -83 17 -215 -3 -62 -10 -91 -7 -91 7 0 13 70 41 103 41 18 0 48 5 67
10 89 26 338 53 615 66 61 3 135 12 165 21 37 11 98 16 188 17 126 1 132 2
130 21 -3 16 2 19 25 17 15 -2 44 2 64 7 22 6 41 7 46 2 5 -5 22 -3 41 5 39
17 39 17 73 2z"/>
<path d="M1507 2873 c-5 -4 -27 -16 -50 -25 -33 -13 -37 -17 -18 -17 20 -1 21
-3 11 -16 -11 -13 -8 -15 21 -15 32 -1 33 -1 15 -15 -11 -8 -34 -15 -52 -15
-18 0 -36 -4 -39 -10 -5 -9 134 -3 144 6 2 1 12 -6 24 -17 14 -13 35 -19 66
-19 65 0 44 -10 -32 -15 -41 -3 -79 1 -99 9 -45 18 -133 22 -123 6 4 -7 1 -16
-6 -21 -22 -14 171 -17 321 -5 49 4 66 3 50 -3 -19 -7 -8 -9 45 -9 39 0 61 3
51 5 -11 3 -26 11 -34 19 -11 12 -11 14 2 14 8 0 18 4 21 10 3 6 -1 7 -9 4 -9
-3 -16 -1 -16 5 0 6 8 11 18 12 23 1 8 5 -59 19 -42 8 -58 16 -62 30 -4 18 0
19 44 18 27 0 53 2 56 6 3 3 -7 6 -23 6 -20 0 -25 3 -16 9 10 6 8 10 -11 15
-42 10 -232 18 -240 9z"/>
<path d="M2503 2744 c3 -4 2 -15 -3 -24 -9 -17 -1 -19 110 -25 66 -4 120 -11
120 -15 0 -13 214 -22 245 -10 37 14 29 19 -52 37 -147 31 -440 56 -420 37z"/>
<path d="M3660 2610 c-8 -5 -24 -7 -35 -4 -11 3 1 -7 26 -23 26 -15 47 -32 48
-38 0 -5 38 -15 83 -22 65 -10 112 -10 215 -1 124 11 132 13 115 28 -20 19
-122 35 -342 55 -47 4 -87 9 -90 10 -3 2 -12 0 -20 -5z"/>
<path d="M4324 2545 c18 -14 16 -15 -26 -15 -26 0 -50 -4 -53 -10 -3 -5 0 -10
7 -10 7 -1 1 -8 -14 -16 -16 -8 -28 -19 -28 -23 0 -13 148 -22 205 -13 46 8
48 9 23 16 -31 9 -36 23 -13 32 26 10 16 25 -12 19 -36 -6 -63 3 -63 21 0 8
-9 14 -22 14 -22 -1 -23 -1 -4 -15z"/>
<path d="M1770 2074 c-40 -9 -59 -16 -110 -38 -8 -3 64 -4 160 -1 96 3 189 5
205 5 29 1 29 2 -16 25 -37 19 -59 23 -120 22 -41 -1 -95 -7 -119 -13z"/>
</g>
</svg>
