<?xml version="1.0" standalone="no"?>
<!DOCTYPE svg PUBLIC "-//W3C//DTD SVG 20010904//EN"
 "http://www.w3.org/TR/2001/REC-SVG-20010904/DTD/svg10.dtd">
<svg version="1.0" xmlns="http://www.w3.org/2000/svg"
 width="640.000000pt" height="426.000000pt" viewBox="0 0 640.000000 426.000000"
 preserveAspectRatio="xMidYMid meet">
<metadata>
Created by potrace 1.15, written by Peter Selinger 2001-2017
</metadata>
<g transform="translate(0.000000,426.000000) scale(0.100000,-0.100000)"
fill="#000000" stroke="none">
<path d="M0 2130 l0 -2130 3200 0 3200 0 0 2130 0 2130 -3200 0 -3200 0 0
-2130z m3368 -1194 c3 -3 -8 -7 -24 -7 -24 -1 -25 -3 -6 -6 24 -5 52 -49 52
-85 0 -13 7 -32 15 -42 21 -27 19 -42 -7 -66 -16 -14 -34 -21 -58 -19 -19 1
-57 -2 -83 -6 -38 -6 -51 -4 -67 10 -10 9 -29 16 -42 15 -68 -6 -88 0 -99 27
-6 16 -6 29 0 32 5 3 17 26 27 51 9 25 28 55 42 67 l24 22 -23 5 c-13 3 -37 8
-54 10 -16 2 44 3 133 1 90 -2 166 -6 170 -9z"/>
</g>
</svg>
